# xmcd
#
# Track frame offsets:
#	150
#	15815
#	32804
#	49480
#	68771
#	85138
#	101437
#	116852
#	134530
#	153319
#	174532
#	193699
#	207771
#	221850
#	236191
#	251369
#
# Disc length: 3605 seconds
#
# Revision: 0
# Processed by: cddbd v1.5.2PL0 Copyright (c) Steve Scherf et al.
# Submitted via: audiograbber 1.83.01
#
DISCID=e10e1310
DTITLE=Nelu Vlad si Azur - Hai cu Caruta
DYEAR=2002
DGENRE=National Folk
TTITLE0=Hai Cu Caruta
TTITLE1=Hei lelisoara
TTITLE2=Si-am zis verde bob de roua
TTITLE3=Ciobanul la pensie
TTITLE4=Zice lumea
TTITLE5=Batuta
TTITLE6=Hai mandro si noi la joc
TTITLE7=Drag mi-e cantecul si jocul
TTITLE8=Doamne cum mai trece vremea
TTITLE9=Zori de ziua
TTITLE10=Hora ca-n Moldova/Haideti fratilor la joc
TTITLE11=Ionel s-a insurat
TTITLE12=Asa mama m-a facut
TTITLE13=M-am jurat
TTITLE14=Turai
TTITLE15=Marie dintre munti
EXTD=
EXTT0=
EXTT1=
EXTT2=
EXTT3=
EXTT4=
EXTT5=
EXTT6=
EXTT7=
EXTT8=
EXTT9=
EXTT10=
EXTT11=
EXTT12=
EXTT13=
EXTT14=
EXTT15=
PLAYORDER=
